<svg width="100" height="100" viewBox="0 0 100 100" fill="none" xmlns="http://www.w3.org/2000/svg">
<path d="M50 0L57.5103 7.40706L67.101 3.01537L71.625 12.5444L82.1394 11.6978L83.1314 22.1994L93.3013 25L90.6417 35.2076L99.2404 41.3176L93.25 50L99.2404 58.6824L90.6417 64.7924L93.3013 75L83.1314 77.8006L82.1394 88.3022L71.625 87.4556L67.101 96.9846L57.5103 92.5929L50 100L42.4897 92.5929L32.899 96.9846L28.375 87.4556L17.8606 88.3022L16.8686 77.8006L6.69873 75L9.3583 64.7924L0.759613 58.6824L6.75 50L0.759613 41.3176L9.3583 35.2076L6.69873 25L16.8686 22.1994L17.8606 11.6978L28.375 12.5444L32.899 3.01537L42.4897 7.40706L50 0Z" fill="#EC6F02"/>
</svg>
